<svg id="Layer_1" data-name="Layer 1" xmlns="http://www.w3.org/2000/svg" viewBox="0 0 219.1 32.18"><defs><style>.cls-1{fill:#2578b8;}.cls-2{opacity:0;}.cls-3{fill:#fff;}.cls-4{fill:#7fcec7;}.cls-5{fill:#2b79b7;}.cls-6{fill:#82cac6;}</style></defs><title>header-logo</title><path class="cls-1" d="M19.88,13a1.42,1.42,0,1,1,0-2.83h0a1.42,1.42,0,0,1,0,2.83h0m-.73-6.2a11.18,11.18,0,0,0-4.44,8.91A10.83,10.83,0,0,0,15,18.06c1.25-.28,3.22-.74,6.62-1.54a5.08,5.08,0,0,1-3.83,6.09h0a3.73,3.73,0,0,1-.44.08,13,13,0,0,0,10,4.51V18c0-2.11,0-4.93,0-8.82L19.15,6.83"/><g class="cls-2"><path class="cls-3" d="M15,18.23c-.95.22-1.48.33-1.9.42a11.47,11.47,0,0,1-.77,1.85,5.13,5.13,0,0,0,4.33,2.42,5.34,5.34,0,0,0,.69-.05A11.17,11.17,0,0,1,15,18.23"/></g><g class="cls-2"><path class="cls-3" d="M21.61,16.52c-3.4.8-5.37,1.26-6.62,1.54a11.05,11.05,0,0,0,2.35,4.64l.44-.09a5.07,5.07,0,0,0,3.83-6.09h0"/></g><g class="cls-2"><path class="cls-3" d="M19.88,10.19h0a1.42,1.42,0,0,0,0,2.83h0a1.42,1.42,0,0,0,0-2.83"/></g><path class="cls-4" d="M25.08.07C17.71.07,16.21,6,16.21,6l2.9.84,8.1,2.33h.05V.22A15.86,15.86,0,0,0,25.08.07"/><path class="cls-4" d="M7.57,13.44a1.42,1.42,0,1,1,0-2.83h0A1.4,1.4,0,0,1,9,12a1.43,1.43,0,0,1-1.41,1.43h0m1.24-6A2.63,2.63,0,0,1,6.45,9h0a2.66,2.66,0,0,1-1.49-.47,2.6,2.6,0,0,1-2.55,2.22h0A2.61,2.61,0,0,1,0,9.26v7.87H.38c1.52,0,3.84,0,7.65,0a5.76,5.76,0,0,1-6,5.54h0A6.38,6.38,0,0,1,0,22.29v4.84a12.26,12.26,0,0,0,10.79-6.64,13.1,13.1,0,0,0,.77-1.85,12.29,12.29,0,0,0-1.79-11H9.65a2.7,2.7,0,0,1-.85-.14"/><g class="cls-2"><path class="cls-3" d="M8,17.1c-3.81,0-6.13,0-7.65,0H0v5.17a6.65,6.65,0,0,0,2.07.34h0a5.75,5.75,0,0,0,6-5.54"/></g><g class="cls-2"><path class="cls-3" d="M7.57,10.61h0a1.42,1.42,0,1,0,0,2.83h0A1.43,1.43,0,0,0,9,12a1.4,1.4,0,0,0-1.42-1.4"/></g><path class="cls-1" d="M4,8.43a5.82,5.82,0,0,1-3.17.91H.81A7.34,7.34,0,0,1,0,9.29v.93a2.61,2.61,0,0,0,2.37,1.52h0A2.61,2.61,0,0,0,4.94,9.52,2.57,2.57,0,0,1,4,8.43"/><path class="cls-1" d="M5.56,5.53c0,.11,0,.22,0,.34A3.1,3.1,0,0,1,4,8.43,2.62,2.62,0,0,0,6.43,10h0A2.62,2.62,0,0,0,8.81,8.44,2.61,2.61,0,0,1,7.06,6a2.55,2.55,0,0,1,0-.39,2.47,2.47,0,0,1-.6.08h0a2.46,2.46,0,0,1-.89-.16"/><path class="cls-1" d="M9.66,3.38h0A2.49,2.49,0,0,0,9,3.46,2.58,2.58,0,0,1,7.08,5.61a2.55,2.55,0,0,0,0,.39,2.58,2.58,0,0,0,2.6,2.58h.11a2.6,2.6,0,0,0-.11-5.2"/><path class="cls-1" d="M6.45.48h0a2.66,2.66,0,0,0-1.84.78,2.65,2.65,0,0,1,.06,2.59,2.87,2.87,0,0,1,.9,1.68,2.51,2.51,0,0,0,.9.16h0a2.49,2.49,0,0,0,.61-.08A2.6,2.6,0,0,0,6.45.48"/><path class="cls-1" d="M2.36,0h0A2.58,2.58,0,0,0,0,1.51v1a5.29,5.29,0,0,1,.8-.06H.87A5.43,5.43,0,0,1,4.65,3.85a2.6,2.6,0,0,0-1-3.53A2.65,2.65,0,0,0,2.36,0"/><path class="cls-1" d="M.86,2.47h0A5.52,5.52,0,0,0,0,2.53V9.29a7.34,7.34,0,0,0,.81.05H.87A5.82,5.82,0,0,0,4,8.43,3.09,3.09,0,0,0,5.58,5.87c0-.12,0-.23,0-.34a2.94,2.94,0,0,0-.91-1.68A5.45,5.45,0,0,0,.86,2.46"/><path class="cls-5" d="M37.56,5.26h4V17.64L46,12.5H51l-5.17,5.85,5.3,7.15H46l-4.38-6.59h0V25.5h-4Z"/><path class="cls-5" d="M62.81,23.87h-.06A3.78,3.78,0,0,1,61,25.37a6.3,6.3,0,0,1-4.09.2,4.41,4.41,0,0,1-1.49-.77,3.61,3.61,0,0,1-1-1.26A3.85,3.85,0,0,1,54,21.8a3.94,3.94,0,0,1,.42-1.9,3.82,3.82,0,0,1,1.12-1.28,5.64,5.64,0,0,1,1.61-.8A13.4,13.4,0,0,1,59,17.41c.65-.08,1.31-.14,2-.16l1.81,0a2.1,2.1,0,0,0-.75-1.7,2.77,2.77,0,0,0-1.81-.63,3.9,3.9,0,0,0-1.81.41A5.06,5.06,0,0,0,57,16.45l-2.14-2.19a7.35,7.35,0,0,1,2.63-1.57,9.05,9.05,0,0,1,3.1-.52,8.23,8.23,0,0,1,2.91.44,4.22,4.22,0,0,1,1.82,1.3,5,5,0,0,1,1,2.1,13.91,13.91,0,0,1,.26,2.88V25.5H62.83Zm-1-4.07c-.3,0-.67,0-1.14,0a5.88,5.88,0,0,0-1.31.22,3.16,3.16,0,0,0-1.07.57,1.28,1.28,0,0,0-.44,1,1.13,1.13,0,0,0,.62,1.07,2.61,2.61,0,0,0,1.28.34,4.36,4.36,0,0,0,1.14-.16,3.52,3.52,0,0,0,1-.46,2.17,2.17,0,0,0,.66-.75,2.12,2.12,0,0,0,.26-1.07V19.8Z"/><path class="cls-5" d="M70.92,8.39A2.34,2.34,0,1,1,71.59,10,2.22,2.22,0,0,1,70.92,8.39Zm.33,4.1h4v13h-4Z"/><path class="cls-5" d="M78.76,12.49H83l2.65,8.16h.06L88,12.49h4.39l2.41,8.16h0l2.44-8.16h4.07l-4.63,13h-4L90,16.85h0L87.57,25.5h-4Z"/><path class="cls-5" d="M113,23.87h0a3.78,3.78,0,0,1-1.78,1.5,6.33,6.33,0,0,1-4.1.2,4.36,4.36,0,0,1-1.48-.77,3.64,3.64,0,0,1-1-1.26,3.84,3.84,0,0,1-.37-1.74,4,4,0,0,1,.41-1.9,3.75,3.75,0,0,1,1.13-1.28,5.71,5.71,0,0,1,1.6-.8,11.18,11.18,0,0,1,1.89-.41,18.28,18.28,0,0,1,2-.16c.65,0,1.25,0,1.8,0a2.08,2.08,0,0,0-.76-1.7,2.77,2.77,0,0,0-1.81-.63,3.9,3.9,0,0,0-1.8.42,4.9,4.9,0,0,0-1.46,1.13L105,14.25a7.28,7.28,0,0,1,2.62-1.56,9.39,9.39,0,0,1,3.1-.53,8.2,8.2,0,0,1,2.91.44,4.31,4.31,0,0,1,1.82,1.3,5,5,0,0,1,1,2.1,14,14,0,0,1,.27,2.88v6.61H113Zm-1-4.07c-.31,0-.67,0-1.14,0a5.88,5.88,0,0,0-1.31.22,3.07,3.07,0,0,0-1.07.57,1.28,1.28,0,0,0-.44,1,1.14,1.14,0,0,0,.61,1.07,2.64,2.64,0,0,0,1.29.34,4.42,4.42,0,0,0,1.14-.16,3.59,3.59,0,0,0,1-.46,2.17,2.17,0,0,0,.93-1.82V19.8Z"/><path class="cls-6" d="M123.41,5.06h4.06V25.51h-4.06Z"/><path class="cls-6" d="M132.11,18.94a6.9,6.9,0,0,1,.57-2.84,6.48,6.48,0,0,1,1.55-2.18,7.11,7.11,0,0,1,2.33-1.4,8.6,8.6,0,0,1,5.71,0,7.11,7.11,0,0,1,2.33,1.4,6.48,6.48,0,0,1,1.55,2.18,7.36,7.36,0,0,1,0,5.68A6.58,6.58,0,0,1,144.6,24a7.08,7.08,0,0,1-2.33,1.39,8.6,8.6,0,0,1-5.71,0A7.08,7.08,0,0,1,134.23,24a6.58,6.58,0,0,1-1.55-2.18A7,7,0,0,1,132.11,18.94Zm4.06,0a3.36,3.36,0,0,0,.85,2.4,3.57,3.57,0,0,0,4.79,0,3.81,3.81,0,0,0,0-4.81,3.59,3.59,0,0,0-4.79,0A3.42,3.42,0,0,0,136.17,18.94Z"/><path class="cls-6" d="M164,25.51h-3.91V23.73H160a4,4,0,0,1-.55.75,3.39,3.39,0,0,1-.83.68,4.81,4.81,0,0,1-1.11.49,4.69,4.69,0,0,1-1.35.19,5.66,5.66,0,0,1-2.5-.48,3.5,3.5,0,0,1-1.49-1.31,5,5,0,0,1-.7-2,15.7,15.7,0,0,1-.18-2.47V12.36h4.06v6.43c0,.38,0,.77,0,1.18a3.62,3.62,0,0,0,.24,1.12,1.75,1.75,0,0,0,1.83,1.16,2.54,2.54,0,0,0,1.27-.28,2,2,0,0,0,.75-.76,3,3,0,0,0,.33-1.07,7.38,7.38,0,0,0,.08-1.24V12.36H164Z"/><path class="cls-6" d="M169,12.36h3.9v1.79H173a3.74,3.74,0,0,1,.54-.76,4.24,4.24,0,0,1,.84-.68,5,5,0,0,1,1.11-.48,4.47,4.47,0,0,1,1.36-.19,5.57,5.57,0,0,1,2.48.47,3.61,3.61,0,0,1,1.48,1.31,5.43,5.43,0,0,1,.72,2,15.59,15.59,0,0,1,.19,2.46v7.25h-4.06V19.09c0-.38,0-.78,0-1.18a3.88,3.88,0,0,0-.25-1.12,1.77,1.77,0,0,0-1.82-1.18,2.54,2.54,0,0,0-1.27.28,1.89,1.89,0,0,0-.75.76,3,3,0,0,0-.34,1.07A10.19,10.19,0,0,0,173.1,19v6.55H169Z"/><path class="cls-6" d="M200.59,24.41a7.84,7.84,0,0,1-1.88,5.66C197.46,31.37,195.55,32,193,32a15.42,15.42,0,0,1-3.46-.39,7.81,7.81,0,0,1-3.14-1.53l2.24-3.35a8.52,8.52,0,0,0,2,1.24,5.61,5.61,0,0,0,2.29.46,3.64,3.64,0,0,0,2.74-.91,3.15,3.15,0,0,0,.88-2.31V23.94h-.06a3.84,3.84,0,0,1-1.75,1.36,5.7,5.7,0,0,1-2,.39,6.86,6.86,0,0,1-2.65-.5,5.85,5.85,0,0,1-2-1.41,6.1,6.1,0,0,1-1.31-2.15,7.5,7.5,0,0,1-.46-2.73,7.88,7.88,0,0,1,.42-2.55,6.87,6.87,0,0,1,1.19-2.19,6,6,0,0,1,1.88-1.53,5.44,5.44,0,0,1,2.51-.58,6.53,6.53,0,0,1,1.59.19,6.62,6.62,0,0,1,1.28.49,4.65,4.65,0,0,1,1,.67,4,4,0,0,1,.65.72h.06V12.39h3.72Zm-10.21-5.55a3.12,3.12,0,0,0,.93,2.25,3.49,3.49,0,0,0,1,.72,2.84,2.84,0,0,0,1.28.27,2.93,2.93,0,0,0,1.27-.27,3.24,3.24,0,0,0,1-.72,3.2,3.2,0,0,0,.68-3.49,3.27,3.27,0,0,0-.68-1,3.59,3.59,0,0,0-1-.72,2.92,2.92,0,0,0-1.27-.26,3,3,0,0,0-1.28.26,3.63,3.63,0,0,0-1,.72,3.17,3.17,0,0,0-.93,2.25Z"/><path class="cls-6" d="M218.48,23.24A6.47,6.47,0,0,1,216,25.16a7.28,7.28,0,0,1-3.08.68,8.37,8.37,0,0,1-2.85-.49A6.72,6.72,0,0,1,207.75,24a6.47,6.47,0,0,1-1.56-2.18,7.45,7.45,0,0,1,0-5.68,6.51,6.51,0,0,1,1.56-2.18,6.75,6.75,0,0,1,2.33-1.4,8.36,8.36,0,0,1,2.85-.48,6.58,6.58,0,0,1,2.56.48,5.4,5.4,0,0,1,1.94,1.4,6.56,6.56,0,0,1,1.24,2.18,9.06,9.06,0,0,1,.43,2.84v1.27h-9.42a3.22,3.22,0,0,0,1.06,1.85,3.33,3.33,0,0,0,3.69.23,4.41,4.41,0,0,0,1.21-1.15ZM215,17.45a2.36,2.36,0,0,0-.68-1.76,2.41,2.41,0,0,0-1.81-.73,3,3,0,0,0-1.19.22,3.1,3.1,0,0,0-.88.55,2.5,2.5,0,0,0-.57.79,2.71,2.71,0,0,0-.23.93Z"/></svg>