<?xml version="1.0" encoding="utf-8"?>
<!-- Generator: Adobe Illustrator 24.0.3, SVG Export Plug-In . SVG Version: 6.00 Build 0)  -->
<svg version="1.1" id="Layer_1" xmlns="http://www.w3.org/2000/svg" xmlns:xlink="http://www.w3.org/1999/xlink" x="0px" y="0px"
	 viewBox="0 0 633.8 182.6" style="enable-background:new 0 0 633.8 182.6;" xml:space="preserve">
<style type="text/css">
	.st0{fill:#0F62FE;}
	.st1{fill:none;}
	.st2{opacity:0.97;}
	.st3{fill:none;stroke:#0F62FE;stroke-width:4;stroke-miterlimit:10;}
</style>
<title>Group 8</title>
<desc>Created with Sketch.</desc>
<g id="Desktop">
	<g id="Icons-Copy-2" transform="translate(-352.000000, -1798.000000)">
		<g id="Group-8" transform="translate(352.000000, 1798.000000)">
			<g id="Group-53" transform="translate(240.000000, 197.000000)">
				<path id="Fill-1" class="st0" d="M-126.3-77.1c0,12.6-10.2,22.8-22.7,22.8c-12.6,0-22.7-10.2-22.7-22.8s10.2-22.8,22.7-22.8
					C-136.5-100-126.3-89.7-126.3-77.1"/>
				<path id="Fill-3" class="st0" d="M-149-25.8c-28.3,0-51.2-23-51.2-51.4s22.9-51.4,51.2-51.4s51.2,23,51.2,51.4
					S-120.8-25.8-149-25.8 M-149-139.9c-40.9,0-76,25.9-91,62.8c15,36.9,50.1,62.8,91,62.8s76-25.9,91-62.8
					C-73.1-114-108.1-139.9-149-139.9"/>
				<g id="Group-7" transform="translate(3.569721, 0.000358)">
					<polygon id="Clip-6" class="st1" points="-237.9,-197 -67.3,-197 -67.3,-128.5 -237.9,-128.5 					"/>
					<path id="Fill-5" class="st0" d="M-152.6-197c-36.4,0-68.2,20.6-85.3,51.4v17.1c20.4-24.4,51-39.9,85.3-39.9
						s64.9,15.5,85.3,39.9v-17.1C-84.5-176.3-116.2-197-152.6-197"/>
				</g>
				<path id="Fill-8" class="st0" d="M74-172.7c0,9.4-7.6,17.1-17,17.1s-17-7.7-17-17.1s7.6-17.1,17-17.1S74-182.2,74-172.7"/>
				<path id="Fill-10" class="st0" d="M116.7-172.7c0,9.4-7.6,17.1-17,17.1s-17-7.7-17-17.1s7.6-17.1,17-17.1
					S116.7-182.2,116.7-172.7"/>
				<path id="Fill-12" class="st0" d="M-16.5-107.1l57.9-25.7L21.9-70.6c-3.7,11.1-13,22-28.8,22c-16.4,0-29.8-13.4-29.8-29.9
					C-36.8-92.5-28.2-101.9-16.5-107.1"/>
				<path id="Fill-14" class="st0" d="M173.2-107.1l-57.9-25.7l19.5,62.2c3.7,11.1,13.1,22,28.9,22l0,0c16.4,0,29.7-13.4,29.7-29.9
					C193.4-92.5,184.9-101.9,173.2-107.1"/>
				<path id="Fill-16" class="st0" d="M111.8-127.1c-5.9-12.6-18.7-21.4-33.5-21.4s-27.5,8.8-33.4,21.4H111.8z"/>
				<polygon id="Fill-18" class="st0" points="115.3,-90 41.4,-90 41.4,-109.9 115.3,-109.9 				"/>
				<polygon id="Fill-20" class="st0" points="115.3,-52.9 41.4,-52.9 41.4,-72.8 115.3,-72.8 				"/>
				<g id="Group-24" transform="translate(199.904382, 112.875358)">
					<polygon id="Clip-23" class="st1" points="-155,-148.6 -88.1,-148.6 -88.1,-127.2 -155,-127.2 					"/>
					<path id="Fill-22" class="st0" d="M-155-148.6c5.9,12.6,18.7,21.4,33.5,21.4s27.5-8.8,33.4-21.4H-155z"/>
				</g>
				<polygon id="Fill-25" class="st0" points="300,-18.6 304.1,-30.4 296,-30.4 				"/>
				<polygon id="Fill-27" class="st0" points="292.2,-41.1 307.9,-41.1 312,-52.9 288.1,-52.9 				"/>
				<polygon id="Fill-29" class="st0" points="284.4,-63.6 315.7,-63.6 319.8,-75.3 280.3,-75.3 				"/>
				<polygon id="Fill-31" class="st0" points="276.5,-86 323.6,-86 327.7,-97.8 272.4,-97.8 				"/>
				<polygon id="Fill-33" class="st0" points="229.7,-131 293,-131 289,-142.7 229.7,-142.7 				"/>
				<g id="Group-37" transform="translate(390.884462, 21.500358)">
					<polygon id="Clip-36" class="st0" points="-72.1,-186.7 2.9,-186.7 2.9,-174.9 -76.1,-174.9 					"/>
					<polygon id="Fill-35" class="st0" points="-76.1,-174.9 2.9,-174.9 2.9,-186.7 -72,-186.7 					"/>
				</g>
				<polygon id="Fill-38" class="st0" points="326.7,-187.6 322.6,-175.9 393.8,-175.9 393.8,-187.6 				"/>
				<polygon id="Clip-41" class="st1" points="-240,-14.4 393.8,-14.4 393.8,-197 -240,-197 				"/>
				<polygon id="Fill-40" class="st0" points="206.3,-18.6 264.9,-18.6 264.9,-30.4 206.3,-30.4 				"/>
				<polygon id="Fill-42" class="st0" points="206.3,-41.1 264.9,-41.1 264.9,-52.9 206.3,-52.9 				"/>
				<polygon id="Fill-43" class="st0" points="229.7,-63.6 264.9,-63.6 264.9,-75.3 229.7,-75.3 				"/>
				<polygon id="Fill-44" class="st0" points="229.7,-86 264.9,-86 264.9,-97.8 229.7,-97.8 				"/>
				<polygon id="Fill-45" class="st0" points="370.4,-142.7 311.1,-142.7 307,-131 370.4,-131 				"/>
				<polygon id="Fill-46" class="st0" points="335.2,-86 370.4,-86 370.4,-97.8 335.2,-97.8 				"/>
				<polygon id="Fill-47" class="st0" points="335.2,-63.6 370.4,-63.6 370.4,-75.3 335.2,-75.3 				"/>
				<polygon id="Fill-48" class="st0" points="335.2,-41.1 393.8,-41.1 393.8,-52.9 335.2,-52.9 				"/>
				<polygon id="Fill-49" class="st0" points="335.2,-18.6 393.8,-18.6 393.8,-30.4 335.2,-30.4 				"/>
				<polygon id="Fill-50" class="st0" points="285.3,-153.4 281.2,-165.2 206.3,-165.2 206.3,-153.4 				"/>
				<polygon id="Fill-51" class="st0" points="277.5,-175.9 273.4,-187.6 206.3,-187.6 206.3,-175.9 				"/>
				<polygon id="Fill-52" class="st0" points="335.2,-108.5 370.4,-108.5 370.4,-120.3 335.2,-120.3 303.3,-120.3 300,-110.7 
					296.8,-120.3 229.7,-120.3 229.7,-108.5 264.9,-108.5 264.9,-119.3 268.7,-108.5 331.4,-108.5 335.2,-119.3 				"/>
			</g>
		</g>
	</g>
</g>
<g class="st2">
	<polyline class="st3" points="19.3,-56.4 35.1,-69.9 50,-56.4 	"/>
	<line class="st3" x1="35.2" y1="-69.6" x2="35.2" y2="-28.9"/>
</g>
</svg>
